<?xml version="1.0" encoding="UTF-8"?>
<svg width="500px" height="500px" viewBox="0 0 500 500" version="1.1" xmlns="http://www.w3.org/2000/svg" xmlns:xlink="http://www.w3.org/1999/xlink">
    <title>Circular Image EV Charging</title>
    <defs>
        <linearGradient x1="0%" y1="0%" x2="100%" y2="100%" id="linearGradient-1">
            <stop stop-color="#3a86ff" offset="0%"></stop>
            <stop stop-color="#0460D9" offset="100%"></stop>
        </linearGradient>
        <linearGradient x1="0%" y1="0%" x2="100%" y2="100%" id="linearGradient-2">
            <stop stop-color="#4cc417" offset="0%"></stop>
            <stop stop-color="#38b000" offset="100%"></stop>
        </linearGradient>
        <clipPath id="circleClip">
            <circle cx="250" cy="250" r="240" />
        </clipPath>
    </defs>
    <g stroke="none" stroke-width="1" fill="none" fill-rule="evenodd">
        <!-- Background Circle with Clipping Mask -->
        <circle cx="250" cy="250" r="250" fill="#ffffff" stroke="#E0E0E0" stroke-width="2"></circle>
        
        <!-- Clipped Content - Person with Charging Station -->
        <g clip-path="url(#circleClip)">
            <!-- Background Gradient -->
            <rect x="0" y="0" width="500" height="500" fill="#E8F5E9"></rect>
            
            <!-- Stylized Floor/Ground -->
            <rect x="0" y="350" width="500" height="150" fill="#C8E6C9"></rect>
            
            <!-- Person Silhouette -->
            <g transform="translate(230, 200)">
                <!-- Head -->
                <circle cx="0" cy="0" r="40" fill="#455A64"></circle>
                
                <!-- Body -->
                <path d="M-25,40 C-40,70 -40,150 -40,160 L40,160 C40,150 40,70 20,40 Z" fill="#546E7A"></path>
                
                <!-- Arms - Left arm extended to charging station -->
                <path d="M-30,60 C-70,80 -100,100 -120,120" stroke="#546E7A" stroke-width="15" stroke-linecap="round"></path>
                <path d="M20,60 C30,90 30,100 25,130" stroke="#546E7A" stroke-width="15" stroke-linecap="round"></path>
                
                <!-- Face Features - Simple smile and eyes -->
                <circle cx="-15" cy="-5" r="5" fill="#FFFFFF"></circle>
                <circle cx="15" cy="-5" r="5" fill="#FFFFFF"></circle>
                <path d="M-10,15 C-5,25 5,25 10,15" stroke="#FFFFFF" stroke-width="3" stroke-linecap="round" fill="none"></path>
            </g>
            
            <!-- Electric Car -->
            <g transform="translate(320, 390)">
                <!-- Car Body -->
                <rect x="-70" y="-40" width="140" height="40" rx="10" fill="#90CAF9" stroke="#1976D2" stroke-width="2"></rect>
                <rect x="-60" y="-60" width="120" height="30" rx="8" fill="#BBDEFB" stroke="#1976D2" stroke-width="2"></rect>
                
                <!-- Wheels -->
                <circle cx="-40" cy="0" r="15" fill="#455A64"></circle>
                <circle cx="-40" cy="0" r="8" fill="#78909C"></circle>
                <circle cx="40" cy="0" r="15" fill="#455A64"></circle>
                <circle cx="40" cy="0" r="8" fill="#78909C"></circle>
                
                <!-- Front Details -->
                <rect x="60" y="-30" width="10" height="20" rx="2" fill="#1976D2"></rect>
                
                <!-- Windows -->
                <rect x="-50" y="-55" width="100" height="20" rx="5" fill="#E3F2FD" stroke="#1976D2" stroke-width="1"></rect>
            </g>
            
            <!-- Charging Station -->
            <g transform="translate(100, 300)">
                <!-- Station Base -->
                <rect x="-25" y="-80" width="50" height="130" rx="5" fill="#F5F5F5" stroke="#616161" stroke-width="2"></rect>
                
                <!-- Screen Display -->
                <rect x="-18" y="-65" width="36" height="30" rx="3" fill="#BBDEFB" stroke="#1976D2" stroke-width="1"></rect>
                
                <!-- Control Panel -->
                <rect x="-18" y="-20" width="36" height="40" rx="3" fill="#E0E0E0" stroke="#616161" stroke-width="1"></rect>
                <circle cx="0" cy="-10" r="5" fill="url(#linearGradient-1)"></circle>
                <circle cx="0" cy="10" r="5" fill="url(#linearGradient-2)"></circle>
                
                <!-- Charging Cable -->
                <path d="M25,-45 C60,-45 90,-10 95,20 C100,50 110,70 130,90" stroke="#616161" stroke-width="5" stroke-linecap="round"></path>
                
                <!-- Charging Connector -->
                <path d="M130,90 L150,90 L150,110 L130,110 Z" fill="#455A64" stroke="#263238" stroke-width="2"></path>
                
                <!-- Electric Charging Icons -->
                <g transform="translate(0, -50)">
                    <path d="M-5,-8 L3,0 L-3,0 L5,8 L0,3 L5,3 L-5,-8" fill="url(#linearGradient-2)" stroke="none"></path>
                </g>
            </g>
        </g>
        
        <!-- Decorative Ring Around the Circle -->
        <circle cx="250" cy="250" r="245" fill="none" stroke="url(#linearGradient-2)" stroke-width="5" opacity="0.6"></circle>
    </g>
</svg>